<svg xmlns="http://www.w3.org/2000/svg" width="43.19" height="43.19" viewBox="0 0 43.19 43.19">
  <g id="Group_3194" data-name="Group 3194" transform="translate(-203.135 -538.32)">
    <path id="Exclusion_7" data-name="Exclusion 7" d="M-3888.27,2994.01a20.965,20.965,0,0,1-8.211-1.658,21.027,21.027,0,0,1-6.705-4.521,21.028,21.028,0,0,1-4.521-6.705,20.96,20.96,0,0,1-1.658-8.211,20.96,20.96,0,0,1,1.658-8.211,21.023,21.023,0,0,1,4.521-6.705,21.029,21.029,0,0,1,6.705-4.521,20.965,20.965,0,0,1,8.211-1.658,20.963,20.963,0,0,1,8.211,1.658,21.032,21.032,0,0,1,6.705,4.521,21.023,21.023,0,0,1,4.521,6.705,20.963,20.963,0,0,1,1.658,8.211,20.963,20.963,0,0,1-1.658,8.211,21.027,21.027,0,0,1-4.521,6.705,21.026,21.026,0,0,1-6.705,4.521A20.964,20.964,0,0,1-3888.27,2994.01ZM-3899,2976.986h-.084a2.473,2.473,0,0,0-2.328,2.162,2.481,2.481,0,0,0,1.894,2.7.727.727,0,0,1,.114.042l.049.021h.789l.109-.036.031-.01.227-.075a2.484,2.484,0,0,0,1.674-2.73,2.445,2.445,0,0,0-2.473-2.071Zm22.621,0a2.455,2.455,0,0,0-2.451,1.929,2.458,2.458,0,0,0,1.566,2.843c.106.039.218.071.325.1l.006,0,.03.009.128.038h.728l.061-.021.01,0c.05-.017.1-.035.155-.049a2.46,2.46,0,0,0,1.842-2.7,2.441,2.441,0,0,0-2.267-2.15C-3876.294,2976.987-3876.338,2976.986-3876.382,2976.986Zm-22.47-.323a2.642,2.642,0,0,1,1.919.857,2.818,2.818,0,0,1,.748,2.114c-.006.084-.01.168-.013.265v.052h16.974c.008-.112.011-.226.015-.335v-.009a4.667,4.667,0,0,1,.064-.735,2.775,2.775,0,0,1,2.731-2.221,2.8,2.8,0,0,1,.84.129,2.159,2.159,0,0,0,.62.093c.272,0,.551,0,.852,0q.555,0,1.11,0h.708v-2.064l-.968-1.011-.513-.536q-.77-.8-1.541-1.607c-.059-.062-.12-.119-.191-.186l-.015-.014-.1-.1c-.048.144-.1.282-.145.427l-.086.252-3.206-2.028-.4-.256.36-.573.073-.115.2-.325-.122-.081-.2-.133-.375.586-.116.182-.119.187a1.327,1.327,0,0,0,.816,1.022l.01.006c.054.032.107.064.16.1l.61.387c.647.41,1.316.835,1.981,1.245a.294.294,0,0,1,.159.409c-.271.847-.533,1.712-.788,2.549l0,.012-.163.537c-.047.158-.092.261-.293.261h-.005c-.918-.007-1.85-.007-2.752-.008h-1.376a.779.779,0,0,1-.141-.018l-.013,0-.069-.011V2973.6h-1.913c-.545,0-1.262,0-1.974.007h-.01a.384.384,0,0,1-.4-.228.568.568,0,0,0-.1-.151,3.3,3.3,0,0,1-.829-2.731,12.856,12.856,0,0,0,.023-1.482c0-.2-.01-.45-.01-.686h-.778v3.566h-15.748v4.188h1.02v.8h.313a18,18,0,0,0,2.766-.181A2.591,2.591,0,0,1-3898.852,2976.663Zm17.307-3.842h.01a.536.536,0,0,1,.493.244c.523.728,1.07,1.455,1.553,2.1a.922.922,0,0,0,.728.4.8.8,0,0,0,.489-.174.827.827,0,0,0,.1-1.211c-.254-.344-.514-.692-.766-1.029l-.037-.05c-.4-.533-.757-1.013-1.114-1.5a.965.965,0,0,0-.839-.422h-.016c-.258,0-.535,0-.873,0h-1.86c.01-.114.019-.226.028-.333l0-.026c.02-.253.038-.492.072-.732a.371.371,0,0,0-.176-.4,3.33,3.33,0,0,1-1.1-1.314.658.658,0,0,1,.292-.928.664.664,0,0,1,.281-.065.719.719,0,0,1,.622.435,3.924,3.924,0,0,0,.221.354l.015.021c.031.047.062.093.092.14l.08-.039a1.283,1.283,0,0,0-.328-1.214.8.8,0,0,0-.575-.236,1.412,1.412,0,0,0-.531.121,1.615,1.615,0,0,0-.909,1,7.424,7.424,0,0,0-.408,3.577,1.265,1.265,0,0,0,1.352,1.266c.456.015.942.022,1.529.022.45,0,.907,0,1.338-.008Zm-12.673-4.136-1.469,0c-.378,0-.513.135-.514.51,0,.6,0,1.215,0,1.819,0,.368.142.5.52.5h.031l3.394,0,3.391,0h.035c.374,0,.513-.138.515-.51,0-.6,0-1.2,0-1.758,0-.445-.126-.567-.583-.567h-5.322Zm-6.041,2.411h2.459c.008.031.015.062.022.091a.8.8,0,0,0,.055.18.274.274,0,0,0,.241.154.172.172,0,0,0,.171-.111,1.284,1.284,0,0,1,.382-.524.359.359,0,0,0,.065-.255c0-2.01,0-3.648,0-5.155,0-.3-.145-.442-.451-.443l-1.713,0-1.714,0c-.307,0-.444.14-.445.447,0,1.558-.006,3.37.007,5.156a.6.6,0,0,0,.125.29l0,0c.02.031.039.061.056.091a1.67,1.67,0,0,0,.186.26l.041.049,0,0c.062.076.132.162.2.165h.005c.082,0,.179-.108.25-.188l.006-.007a.247.247,0,0,0,.038-.133v-.009a.658.658,0,0,1,.009-.065Zm20.2-.42h0l-.333.052-.055.009-.159.025,0,.093.1.065.03.02.188.125.111-.186Zm-4.211-3.167a.534.534,0,0,0-.245.066.52.52,0,0,0-.278.323.6.6,0,0,0,.1.481,5.125,5.125,0,0,0,.868,1.075,5.046,5.046,0,0,0,3.238,1.119h.233c.383,0,.617-.191.627-.505s-.223-.521-.625-.545l-.125-.008a7.517,7.517,0,0,1-1.077-.122,3,3,0,0,1-2.211-1.488C-3883.9,2967.643-3884.069,2967.51-3884.267,2967.51Zm-10.263-1.979h-1.152c-.377,0-.517.139-.518.508,0,.6,0,1.214,0,1.818,0,.371.141.508.517.508h3.08q1.885,0,3.771,0c.386,0,.517-.135.519-.537,0-.584,0-1.192,0-1.728,0-.452-.12-.569-.579-.569h-5.639Zm11.378-1.711h0l-.139.062-.025.011-.1.047a1.481,1.481,0,0,0-.87,1.658,1.491,1.491,0,0,0,1.448,1.182h.008a1.5,1.5,0,0,0,1.442-1.194,1.47,1.47,0,0,0-.909-1.661l-.13-.056-.011,0-.1-.045h-.607Zm-15.813,16.81a1.17,1.17,0,0,1-.841-.355,1.18,1.18,0,0,1-.342-.854,1.172,1.172,0,0,1,1.186-1.155h.012a1.179,1.179,0,0,1,1.168,1.187A1.188,1.188,0,0,1-3898.965,2980.629Zm22.549,0h-.005a1.189,1.189,0,0,1-1.186-1.168,1.167,1.167,0,0,1,.337-.841,1.191,1.191,0,0,1,.854-.353,1.175,1.175,0,0,1,1.168,1.178A1.184,1.184,0,0,1-3876.416,2980.628Zm-15.449-9.767h-.76c-.358,0-.558-.054-.669-.18s-.141-.341-.094-.711a.329.329,0,0,1,.113-.026c.079,0,.114.058.119.2.013.417.058.46.48.462l.312,0h.257c.136,0,.243,0,.339,0h.029a.4.4,0,0,0,.305-.1.4.4,0,0,0,.081-.312.306.306,0,0,1,.033-.216.107.107,0,0,1,.082-.03.339.339,0,0,1,.1.019.829.829,0,0,1-.07.7A.816.816,0,0,1-3891.865,2970.861Zm2.11-.862h0l-.009-.183,0-.072-.011-.211h-4.949l-.031.4,0,.038h-.319l-.008-.113-.006-.094c0-.072-.01-.144-.015-.224l-.717-.041.006-.081h7.129l0,.085-.71.031-.009.121c-.008.1-.017.2-.027.319l-.265.025-.055,0Zm-2.192-2.294h-.677c-.365,0-.559-.051-.67-.176s-.141-.334-.095-.714a.348.348,0,0,1,.113-.025c.079,0,.115.058.12.194.014.418.059.461.48.464h.847c.411,0,.464-.055.476-.471,0-.028,0-.056.005-.085v-.021c0-.015,0-.031,0-.047a.364.364,0,0,1,.132-.034c.076,0,.111.056.117.186a.735.735,0,0,1-.146.562.708.708,0,0,1-.536.168Zm-3.127-.868h0v-.006l0-.03c-.012-.144-.023-.273-.036-.438h-.229l-.151,0c-.074,0-.149-.006-.225-.011l-.11-.006,0-.078h7.131l.009.064-.093.009h-.012c-.082.009-.161.017-.238.021-.04,0-.082,0-.134,0h-.239c-.007.085-.012.163-.018.24l-.007.094-.009.122h-.319l-.028-.436h-4.956c0,.08-.007.154-.01.228l-.01.214-.315.015Z" transform="translate(4113 -2413)" fill="#b5b5b5" stroke="rgba(0,0,0,0)" stroke-miterlimit="10" stroke-width="1"/>
  </g>
</svg>
