<svg xmlns="http://www.w3.org/2000/svg" width="43.191" height="43.19" viewBox="0 0 43.191 43.19">
  <g id="Group_3195" data-name="Group 3195" transform="translate(-3978.5 2446.5)">
    <g id="Group_3114" data-name="Group 3114" transform="translate(3903.41 -2941.067)">
      <path id="Exclusion_8" data-name="Exclusion 8" d="M-4019.313,2850.257a20.968,20.968,0,0,1-8.212-1.658,21.029,21.029,0,0,1-6.706-4.521,21.029,21.029,0,0,1-4.521-6.705,20.965,20.965,0,0,1-1.658-8.211,20.965,20.965,0,0,1,1.658-8.211,21.027,21.027,0,0,1,4.521-6.705,21.025,21.025,0,0,1,6.706-4.521,20.97,20.97,0,0,1,8.212-1.657,20.965,20.965,0,0,1,8.211,1.657,21.032,21.032,0,0,1,6.705,4.521,21.022,21.022,0,0,1,4.521,6.705,20.965,20.965,0,0,1,1.658,8.211,20.965,20.965,0,0,1-1.658,8.211,21.028,21.028,0,0,1-4.521,6.705,21.028,21.028,0,0,1-6.705,4.521A20.963,20.963,0,0,1-4019.313,2850.257Zm6.794-14.485h0a1.613,1.613,0,0,0,1.622,1.549,1.527,1.527,0,0,0,1.566-1.545l2.2-.01v-1.795l-1.184-1.827-.695-.138-1.3-3.418h-2.836l.085,5.871-1.035.006-6.3-2.736,6.195-2.69h.555v-.77l0-7.269h-15.843v7.212l0,.826h.826l6.2,2.69-6.5,2.821h-.509v1.206l1.258.01a1.556,1.556,0,0,0,1.594,1.529,1.564,1.564,0,0,0,1.587-1.529h.643a1.576,1.576,0,0,0,1.593,1.53,1.566,1.566,0,0,0,1.585-1.523Zm-14.349-1.232v0l5.43-2.359,5.291,2.3Zm17.2-2.719h-2.961V2829.2h2.013l.948,2.624Zm-11.773-.541h0l-5.16-2.24h10.32l-5.159,2.24Z" transform="translate(4116 -2313)" fill="#b5b5b5" stroke="rgba(0,0,0,0)" stroke-miterlimit="10" stroke-width="1"/>
    </g>
  </g>
</svg>
