<svg xmlns="http://www.w3.org/2000/svg" width="43.189" height="43.19" viewBox="0 0 43.189 43.19">
  <g id="Group_3348" data-name="Group 3348" transform="translate(-3865.5 1997.5)">
    <path id="Exclusion_14" data-name="Exclusion 14" d="M-228.906,53.19a20.963,20.963,0,0,1-8.211-1.658,21.023,21.023,0,0,1-6.705-4.521,21.024,21.024,0,0,1-4.521-6.705A20.966,20.966,0,0,1-250,32.095a20.965,20.965,0,0,1,1.658-8.211,21.025,21.025,0,0,1,4.521-6.705,21.024,21.024,0,0,1,6.705-4.521A20.962,20.962,0,0,1-228.906,11a20.964,20.964,0,0,1,8.212,1.658,21.024,21.024,0,0,1,6.705,4.521,21.024,21.024,0,0,1,4.521,6.705,20.964,20.964,0,0,1,1.658,8.211,20.965,20.965,0,0,1-1.658,8.212,21.023,21.023,0,0,1-4.521,6.705,21.023,21.023,0,0,1-6.705,4.521A20.965,20.965,0,0,1-228.906,53.19ZM-242,24.941h0V29.6a2.731,2.731,0,0,0,1.844,2.774v8.313h.925V32.376a2.729,2.729,0,0,0,1.841-2.774V24.941h-.923V29.6a2.288,2.288,0,0,1-.443,1.4,1.365,1.365,0,0,1-.475.4V24.941h-.925V31.4a1.388,1.388,0,0,1-.476-.4,2.292,2.292,0,0,1-.442-1.4V24.941H-242Zm23.032-.94V40.226h.925V35.679a7.7,7.7,0,0,0,1.956-5.427,7.519,7.519,0,0,0-2.113-5.575l-.768-.677Zm-9.867,1.052a7.436,7.436,0,0,0-5.277,2.19,7.436,7.436,0,0,0-2.191,5.278,7.433,7.433,0,0,0,2.191,5.277,7.437,7.437,0,0,0,5.277,2.189,7.437,7.437,0,0,0,5.277-2.189,7.431,7.431,0,0,0,2.19-5.277,7.434,7.434,0,0,0-2.19-5.278A7.436,7.436,0,0,0-228.835,25.052Zm10.792,9.157V26.293a7.577,7.577,0,0,1,1.03,3.959,7.616,7.616,0,0,1-1.029,3.954Z" transform="translate(4116 -2008)" fill="#b5b5b5" stroke="rgba(0,0,0,0)" stroke-miterlimit="10" stroke-width="1"/>
  </g>
</svg>
