<svg xmlns="http://www.w3.org/2000/svg" width="43.19" height="43.19" viewBox="0 0 43.19 43.19">
  <path id="Exclusion_1" data-name="Exclusion 1" d="M21.094,42.19A21.1,21.1,0,0,1,12.883,1.658,21.1,21.1,0,0,1,29.305,40.532,20.962,20.962,0,0,1,21.094,42.19ZM12.2,25.88v6.612H29.6V25.88Zm-.379-2.887c-.168,0-.817.2-.817.639v1.252c0,.425.626.741.817.741L29.6,25.318c.564,0,.971,0,.971-.435V23.631c0-.4-.363-.639-.971-.639Zm6.694-8.15h0c.228,1.414.786,1.683.792,1.685l-.179,1.354a3.079,3.079,0,0,1-.741.026c-.028.013-2.866,1.334-3.4,2.069a3.82,3.82,0,0,0-1.124,2.658H27.914c-.036-.115-.071-.255-.112-.417a5.16,5.16,0,0,0-1.012-2.241,11.826,11.826,0,0,0-3.356-1.864c-.028,0-.042.008-.042.024v-.229c-.291,0-.426-.008-.546-.015-.1-.006-.2-.011-.374-.011V16.528c.007,0,.617-.283.767-1.687a.356.356,0,0,0,.074.008c.126,0,.207-.082.248-.251a2.275,2.275,0,0,0,.035-.5c0-.068.01-.167.021-.282.028-.286.063-.641-.03-.744a.084.084,0,0,0-.064-.029.237.237,0,0,0-.131.058l.2-.843a2.221,2.221,0,0,0-.741-2.4,2.462,2.462,0,0,1-.374-.325,1.16,1.16,0,0,0-.6-.391A2.573,2.573,0,0,0,21.016,9a3.07,3.07,0,0,0-2.5,1.294,2.793,2.793,0,0,0-.151,2.4l.023.1V13.1h-.005a.215.215,0,0,0-.169.069c-.116.131-.082.415-.052.667a2.437,2.437,0,0,1,.023.26c0,.322.172.749.3.749a.057.057,0,0,0,.029-.008Zm3.015,7.231v0l-.357-2.7.2-.358H21.4c.051,0,.077,0,.085-.017s-.024-.079-.112-.212l-.563-.153-.562.382h0l.154.23-.383,2.657c-.271-.581-.55-1.3-.82-1.993-.256-.659-.5-1.281-.687-1.66a2.328,2.328,0,0,1,.971-.332V16.835a2.445,2.445,0,0,0,1.328.46,1.478,1.478,0,0,0,1.3-.664,3.853,3.853,0,0,1,.179,1.278,3.845,3.845,0,0,1,.945.332c-.178.356-.439.963-.715,1.6-.319.742-.681,1.583-.995,2.224Z" transform="translate(0.501 0.5)" fill="#b5b5b5" stroke="rgba(0,0,0,0)" stroke-miterlimit="10" stroke-width="1"/>
</svg>
