<svg xmlns="http://www.w3.org/2000/svg" width="43.189" height="43.19" viewBox="0 0 43.189 43.19">
  <g id="Group_3390" data-name="Group 3390" transform="translate(0.501 0.501)">
    <path id="Exclusion_54" data-name="Exclusion 54" d="M21.1,42.191A21.1,21.1,0,0,1,12.884,1.659,21.1,21.1,0,0,1,29.307,40.533,20.961,20.961,0,0,1,21.1,42.191ZM12.017,12.033a2.1,2.1,0,0,0-2.152,2.058l-.86,0,0,1.676h.291v1.076c-.9.158-2.513.6-3.136,1.811a3.111,3.111,0,0,0,.427,3.111,9.61,9.61,0,0,0,2.71,2.653v.749h1.121c1.679,1.059,3.675,2.079,5.605,3.066a33.33,33.33,0,0,1,6.407,3.8c2.871,2.644,3.156,4.6,3.179,4.813l1-.056c-.016-.245-.243-2.494-3.5-5.492a33.684,33.684,0,0,0-6.629-3.955c-1.367-.7-2.781-1.422-4.1-2.176h7.168v2.658H24.81V25.17h.644v-9.4h.224v1.779a.4.4,0,0,0,.419.374h.124a.4.4,0,0,0,.418-.374V15.767h.242l-.113,7.794h3.767l1.731-4.538.923-.183,1.572-2.426v-.674l.16,0V14.018l-3.079,0a2.028,2.028,0,0,0-2.079-2.052,2.162,2.162,0,0,0-1.414.512,2.223,2.223,0,0,0-.74,1.545H19.166a2.159,2.159,0,0,0-.712-1.512,2.115,2.115,0,0,0-1.39-.509,2.094,2.094,0,0,0-2.115,2.031h-.854a2.183,2.183,0,0,0-.712-1.509A2.075,2.075,0,0,0,12.017,12.033Zm1.15,12.042h0l4.158-3.1-1.913-.595,6.447-3.321-3.894,3.212,1.715.527-6.511,3.278Zm10.484-.885h-.3v-.54h-.54v-.3h.54v-.539h.3v.539h.539v.3h-.539v.539ZM9.292,23.17h0a7.52,7.52,0,0,1-1.853-1.921,2.219,2.219,0,0,1-.393-2.132c.414-.806,1.71-1.145,2.248-1.254V23.17Zm20.775-.194H27.4V19.491h3.929l-1.259,3.484ZM11,22.65H10v-.3h1v.3Z" transform="translate(42.189 42.19) rotate(180)" fill="#b7b7b7" stroke="rgba(0,0,0,0)" stroke-miterlimit="10" stroke-width="1"/>
  </g>
</svg>
