<svg xmlns="http://www.w3.org/2000/svg" width="43.189" height="43.19" viewBox="0 0 43.189 43.19">
  <path id="Exclusion_2" data-name="Exclusion 2" d="M21.094,42.19A21.1,21.1,0,0,1,12.883,1.658,21.1,21.1,0,0,1,29.305,40.532,20.963,20.963,0,0,1,21.094,42.19ZM27.5,25.1a2.123,2.123,0,1,0,2.123,2.123A2.125,2.125,0,0,0,27.5,25.1Zm-14.473,0a2.123,2.123,0,1,0,2.123,2.123A2.126,2.126,0,0,0,13.028,25.1ZM6.492,26.482V27.6h3.93a.119.119,0,0,0,.12-.119v-.437a.485.485,0,0,1,.068-.247l1.129-1.888a.12.12,0,0,1,.1-.059h2.38a.12.12,0,0,1,.1.059l1.168,1.956a.476.476,0,0,1,.068.246v.32a.119.119,0,0,0,.119.12H24.85a.12.12,0,0,0,.12-.12v-.387A.235.235,0,0,1,25,26.924l1.2-2.012a.12.12,0,0,1,.1-.059h2.38a.12.12,0,0,1,.1.059L30,26.927a.243.243,0,0,1,.033.117l.014.509h.24v-.006l-.016-.573,0-.061-.032-.055-.167-.279,3.437.57a2.159,2.159,0,0,0,.352.029,2.055,2.055,0,0,0,.207-.01l1.678-.161a.241.241,0,0,0,.205-.167l.181-.577a.715.715,0,0,0,.032-.222l-.032-2.758a2.39,2.39,0,0,0-1.06-1.958L21.88,12.47l-3.577-2.4a2.386,2.386,0,0,0-1.336-.407l-5.09,0a.961.961,0,0,0-.953.878l-.379,4.5a.117.117,0,0,0,.031.091.115.115,0,0,0,.087.039l5.749,0a.72.72,0,0,1,.4.122L19,16.759l1.658,1.112-.929,2.08-.175-.078a.119.119,0,0,0-.049-.01.12.12,0,0,0-.11.071l-1.967,4.4H15.158V21.065h.427l-.209-3.121h-.219v-.029a.24.24,0,0,0-.239-.239H10.255a.478.478,0,0,0-.4.221L7.066,22.273a.484.484,0,0,0-.075.257v3.951Zm21.01,2a1.257,1.257,0,1,1,1.257-1.257A1.259,1.259,0,0,1,27.5,28.479Zm0-.608a.141.141,0,1,0,.141.141A.141.141,0,0,0,27.5,27.871Zm0-1.027a.377.377,0,1,0,.377.377A.378.378,0,0,0,27.5,26.844Zm0-.555a.141.141,0,1,0,.141.141A.141.141,0,0,0,27.5,26.289Zm-14.473,2.19a1.257,1.257,0,1,1,1.257-1.257A1.259,1.259,0,0,1,13.028,28.479Zm0-.608a.141.141,0,1,0,.141.141A.141.141,0,0,0,13.028,27.871Zm0-1.027a.377.377,0,1,0,.377.377A.378.378,0,0,0,13.028,26.844Zm0-.555a.141.141,0,1,0,.141.141A.141.141,0,0,0,13.028,26.289Zm17.262-1.95h0l-.76,0-.008,0H18.572v-.088a.119.119,0,0,1,.119-.12H19.5l1.461-3.491a.119.119,0,0,0-.059-.162l-.17-.076.851-1.906,8.7,5.845ZM14.559,22.37h-.8a.12.12,0,0,1-.12-.12V18.274a.12.12,0,0,1,.12-.12h.8a.12.12,0,0,1,.12.12v3.977A.118.118,0,0,1,14.559,22.37Zm-1.927,0H9.255a.118.118,0,0,1-.12-.12v-2.3a.12.12,0,0,1,.019-.065L10.22,18.21a.12.12,0,0,1,.1-.056h2.311a.12.12,0,0,1,.12.12v3.977A.118.118,0,0,1,12.632,22.37Z" transform="translate(0.5 0.5)" fill="#b7b7b7" stroke="rgba(0,0,0,0)" stroke-miterlimit="10" stroke-width="1"/>
</svg>
